PathFileType	4	(X/Y/Z)	J:\SJ_001_YN_lab\squat_jump\squat_jump02.trc
DataRate	CameraRate	NumFrames	NumMarkers	Units	OrigDataRate	OrigDataStartFrame	OrigNumFrames
200	200	7	61	m	200	338	1156
Frame#	Time	C7			MAN			XYP			T8			T12			COTG			COTD			EASG			MTBassin			EPSG			EPSD			EASD			FHAG			FHPG			FBPG			FBAG			CLG			CMG			TFIBG			THAG			THPG			TBPG			TBAG			MLG			MMG			MT5G			MT1G			MTPG			CALG			MTCALG			FHAD			FHPD			FBPD			FBAD			CLD			CMD			TFIBD			THAD			THPD			TBPD			TBAD			MLD			MMD			MT5D			MT1D			MTPD			CALD			MTCALD			CLAVG			ACG			SCAPGL			SCAPGH			SCAPGB			CLAVD			ACD			SCAPDL			SCAPDH			SCAPDB			PATG			PATD			L5			
		X1	Y1	Z1	X2	Y2	Z2	X3	Y3	Z3	X4	Y4	Z4	X5	Y5	Z5	X6	Y6	Z6	X7	Y7	Z7	X8	Y8	Z8	X9	Y9	Z9	X10	Y10	Z10	X11	Y11	Z11	X12	Y12	Z12	X13	Y13	Z13	X14	Y14	Z14	X15	Y15	Z15	X16	Y16	Z16	X17	Y17	Z17	X18	Y18	Z18	X19	Y19	Z19	X20	Y20	Z20	X21	Y21	Z21	X22	Y22	Z22	X23	Y23	Z23	X24	Y24	Z24	X25	Y25	Z25	X26	Y26	Z26	X27	Y27	Z27	X28	Y28	Z28	X29	Y29	Z29	X30	Y30	Z30	X31	Y31	Z31	X32	Y32	Z32	X33	Y33	Z33	X34	Y34	Z34	X35	Y35	Z35	X36	Y36	Z36	X37	Y37	Z37	X38	Y38	Z38	X39	Y39	Z39	X40	Y40	Z40	X41	Y41	Z41	X42	Y42	Z42	X43	Y43	Z43	X44	Y44	Z44	X45	Y45	Z45	X46	Y46	Z46	X47	Y47	Z47	X48	Y48	Z48	X49	Y49	Z49	X50	Y50	Z50	X51	Y51	Z51	X52	Y52	Z52	X53	Y53	Z53	X54	Y54	Z54	X55	Y55	Z55	X56	Y56	Z56	X57	Y57	Z57	X58	Y58	Z58	X59	Y59	Z59	X60	Y60	Z60	X61	Y61	Z61	
290	1.4500	-0.078048	1.584888	-0.278385	-0.061569	1.487002	-0.400462	-0.054272	1.286846	-0.396021	-0.078498	1.417276	-0.178070	-0.058246	1.271336	-0.144670	-0.135605	1.193329	-0.349884	0.035742	1.232305	-0.357328	-0.156317	1.065109	-0.257155	0.101791	1.156115	-0.140198	-0.085544	1.116417	-0.087738	-0.011688	1.128144	-0.086190	0.063112	1.066702	-0.261827	-0.251572	0.848952	-0.322850	-0.274449	0.823676	-0.230220	-0.284980	0.738545	-0.256270	-0.269314	0.754815	-0.318147	-0.277917	0.583722	-0.311548	-0.186331	0.563410	-0.343411	-0.293522	0.540573	-0.265180	-0.308008	0.387622	-0.293546	-0.336402	0.398762	-0.220855	-0.325349	0.310768	-0.223486	-0.302324	0.302445	-0.284665	-0.297793	0.162338	-0.183751	-0.223344	0.158720	-0.231422	-0.337345	0.046320	-0.292126	-0.262137	0.052279	-0.331714	-0.312906	0.075203	-0.296835	-0.246550	0.120370	-0.141048	-0.247545	0.139789	-0.145583	0.181455	0.807211	-0.284341	0.198713	0.793139	-0.210382	0.195132	0.708286	-0.242621	0.182421	0.717170	-0.304772	0.181502	0.591036	-0.283189	0.080819	0.565549	-0.321256	0.184187	0.548118	-0.234139	0.197719	0.397084	-0.268959	0.220426	0.411162	-0.195616	0.201108	0.318548	-0.203148	0.185953	0.313579	-0.254776	0.165714	0.153333	-0.183587	0.086441	0.164287	-0.239125	0.205718	0.047234	-0.273835	0.139269	0.049239	-0.335694	0.184560	0.076770	-0.269959	0.087340	0.127857	-0.140340	0.090618	0.153600	-0.152155	NaN	NaN	NaN	NaN	NaN	NaN	-0.227547	1.571982	-0.316774	-0.197130	1.588132	-0.281934	-0.218855	1.557113	-0.274153	NaN	NaN	NaN	0.077786	1.615151	-0.356673	0.077474	1.586447	-0.282299	0.040475	1.590481	-0.250251	0.066297	1.562646	-0.242939	-0.238674	0.600580	-0.377924	0.150284	0.605207	-0.356633	-0.047150	1.167474	-0.102818	
291	1.4550	-0.078194	1.601357	-0.275733	-0.061004	1.504293	-0.398307	-0.053243	1.304570	-0.396497	-0.078893	1.431903	-0.177185	-0.058181	1.285336	-0.146727	-0.134739	1.210402	-0.353219	0.037203	1.249706	-0.358714	-0.155385	1.080369	-0.262618	0.101889	1.170894	-0.143877	-0.085460	1.129963	-0.092695	-0.011432	1.141557	-0.090692	0.063666	1.082517	-0.266186	-0.248607	0.858997	-0.324474	-0.271966	0.836832	-0.231040	-0.282479	0.750858	-0.254242	-0.266441	0.765042	-0.316533	-0.276052	0.594173	-0.303692	-0.184803	0.573194	-0.334971	-0.292109	0.550488	-0.257714	-0.308391	0.398053	-0.290590	-0.336530	0.407194	-0.217495	-0.326690	0.319193	-0.223032	-0.303875	0.312545	-0.284514	-0.300255	0.169405	-0.188083	-0.226722	0.166077	-0.235836	-0.338008	0.050942	-0.296074	-0.263358	0.057009	-0.334626	-0.314470	0.080423	-0.301023	-0.249015	0.128528	-0.145990	-0.250185	0.147407	-0.150476	0.179021	0.817966	-0.281981	0.195522	0.806498	-0.207410	0.192312	0.720586	-0.236674	0.180242	0.727303	-0.299231	0.178782	0.601726	-0.272594	0.078819	0.575515	-0.311908	0.181259	0.558213	-0.224064	0.197672	0.408063	-0.262840	0.218492	0.419850	-0.188542	0.201408	0.327190	-0.199932	0.187468	0.323874	-0.252054	0.168345	0.160782	-0.186982	0.090530	0.172012	-0.243932	0.206264	0.050345	-0.275866	0.141347	0.053248	-0.338229	0.186506	0.081266	-0.272621	0.088698	0.137504	-0.145917	0.092668	0.162254	-0.157407	NaN	NaN	NaN	NaN	NaN	NaN	-0.227327	1.588322	-0.314574	-0.196911	1.604403	-0.279702	-0.218796	1.573493	-0.271906	NaN	NaN	NaN	0.078666	1.631511	-0.352727	0.077008	1.602697	-0.278792	0.039743	1.606720	-0.247061	0.065612	1.579018	-0.239439	-0.236763	0.610312	-0.369313	0.148707	0.615248	-0.345617	-0.046936	1.180313	-0.106660	
292	1.4600	-0.078248	1.617533	-0.273253	-0.060396	1.521185	-0.396242	-0.052183	1.322037	-0.396965	-0.079207	1.446395	-0.176334	-0.058100	1.299317	-0.148779	-0.133861	1.227315	-0.356544	0.038870	1.267000	-0.360039	-0.154404	1.095575	-0.268096	0.101977	1.185669	-0.147530	-0.085342	1.143560	-0.097682	-0.011155	1.154996	-0.095229	0.064199	1.098246	-0.270498	-0.245471	0.868848	-0.326040	-0.269650	0.849916	-0.231974	-0.280073	0.763168	-0.252251	-0.263421	0.775179	-0.314800	-0.274072	0.604857	-0.295879	-0.182680	0.583219	-0.326208	-0.290539	0.560716	-0.250268	-0.308550	0.408970	-0.287707	-0.336482	0.416127	-0.214282	-0.327835	0.328209	-0.222674	-0.305189	0.323226	-0.284401	-0.302730	0.177110	-0.192574	-0.229865	0.174182	-0.240227	-0.338815	0.057049	-0.300670	-0.264765	0.063332	-0.338247	-0.316045	0.087080	-0.305657	-0.251587	0.136975	-0.151009	-0.252835	0.155398	-0.155363	0.176472	0.828654	-0.279574	0.192571	0.819851	-0.204569	0.189490	0.732968	-0.230737	0.177763	0.737471	-0.293557	0.175752	0.612788	-0.261949	0.075990	0.585872	-0.302231	0.177914	0.568769	-0.213889	0.197482	0.419746	-0.256737	0.216441	0.429228	-0.181577	0.201696	0.336655	-0.196752	0.188946	0.334990	-0.249294	0.171294	0.169210	-0.190505	0.094832	0.180813	-0.248756	0.206867	0.054704	-0.278346	0.143910	0.058843	-0.341263	0.188579	0.087009	-0.275509	0.090509	0.147893	-0.151465	0.095049	0.171683	-0.162609	NaN	NaN	NaN	NaN	NaN	NaN	-0.227027	1.604359	-0.312405	-0.196600	1.620388	-0.277514	-0.218620	1.589574	-0.269696	NaN	NaN	NaN	0.079669	1.647371	-0.348955	0.076598	1.618617	-0.275459	0.039025	1.622683	-0.244100	0.064960	1.595181	-0.236053	-0.234302	0.620368	-0.360731	0.146614	0.625716	-0.334740	-0.046701	1.193125	-0.110533	
293	1.4650	-0.078192	1.633344	-0.270954	-0.059747	1.537594	-0.394288	-0.051115	1.339167	-0.397429	-0.079433	1.460713	-0.175525	-0.058013	1.313225	-0.150803	-0.133017	1.244029	-0.359850	0.040713	1.284159	-0.361311	-0.153392	1.110633	-0.273544	0.102064	1.200370	-0.151141	-0.085205	1.157170	-0.102645	-0.010879	1.168430	-0.099753	0.064710	1.113781	-0.274727	-0.242257	0.878482	-0.327546	-0.267647	0.862892	-0.233066	-0.277911	0.775442	-0.250358	-0.260372	0.785200	-0.312989	-0.272052	0.615747	-0.288316	-0.180060	0.593430	-0.317333	-0.288888	0.571226	-0.243035	-0.308496	0.420324	-0.284922	-0.336258	0.425564	-0.211245	-0.328744	0.337811	-0.222365	-0.306235	0.334434	-0.284280	-0.305043	0.185498	-0.197013	-0.232658	0.183054	-0.244478	-0.339740	0.064622	-0.305697	-0.266294	0.071252	-0.342460	-0.317591	0.095146	-0.310546	-0.254066	0.145709	-0.155969	-0.255314	0.163779	-0.160120	0.173942	0.839229	-0.277198	0.190040	0.833104	-0.201942	0.186792	0.745350	-0.224923	0.175073	0.747628	-0.287864	0.172505	0.624189	-0.251547	0.072399	0.596587	-0.292449	0.174277	0.579759	-0.203868	0.197157	0.432063	-0.250766	0.214357	0.439306	-0.174860	0.201963	0.346940	-0.193617	0.190332	0.346867	-0.246495	0.174423	0.178606	-0.193949	0.099183	0.190709	-0.253366	0.207503	0.060463	-0.281195	0.146814	0.066173	-0.344676	0.190691	0.094084	-0.278516	0.092693	0.158904	-0.156724	0.097651	0.181815	-0.167528	NaN	NaN	NaN	NaN	NaN	NaN	-0.226608	1.620042	-0.310276	-0.196159	1.636036	-0.275386	-0.218300	1.605317	-0.267525	NaN	NaN	NaN	0.080791	1.662657	-0.345382	0.076266	1.634139	-0.272338	0.038345	1.638297	-0.241410	0.064368	1.611073	-0.232812	-0.231338	0.630670	-0.352447	0.143989	0.636533	-0.324395	-0.046466	1.205907	-0.114400	
294	1.4700	-0.078009	1.648717	-0.268832	-0.059054	1.553451	-0.392463	-0.050054	1.355880	-0.397891	-0.079569	1.474821	-0.174766	-0.057931	1.327011	-0.152775	-0.132238	1.260507	-0.363116	0.042685	1.301145	-0.362525	-0.152365	1.125446	-0.278903	0.102165	1.214929	-0.154695	-0.085068	1.170760	-0.107526	-0.010623	1.181842	-0.104204	0.065196	1.129019	-0.278826	-0.239085	0.887924	-0.329003	-0.266085	0.875732	-0.234368	-0.276117	0.787660	-0.248660	-0.257429	0.795127	-0.311201	-0.270066	0.626838	-0.281240	-0.177100	0.603811	-0.308623	-0.287229	0.582001	-0.236218	-0.308254	0.432060	-0.282268	-0.335868	0.435502	-0.208408	-0.329387	0.347975	-0.222060	-0.306999	0.346107	-0.284116	-0.307019	0.194575	-0.201207	-0.235001	0.192680	-0.248510	-0.340708	0.073518	-0.310857	-0.267836	0.080612	-0.347043	-0.319039	0.104473	-0.315452	-0.256214	0.154762	-0.160746	-0.257411	0.172581	-0.164642	0.171577	0.849679	-0.274944	0.188076	0.846170	-0.199612	0.184345	0.757659	-0.219393	0.172296	0.757761	-0.282320	0.169171	0.635888	-0.241734	0.068244	0.607635	-0.282885	0.170520	0.591139	-0.194310	0.196716	0.444895	-0.245044	0.212321	0.450052	-0.168519	0.202184	0.357987	-0.190537	0.191564	0.359386	-0.243664	0.177528	0.188885	-0.197084	0.103384	0.201625	-0.257534	0.208133	0.067662	-0.284234	0.149851	0.075209	-0.348264	0.192733	0.102467	-0.281471	0.095070	0.170386	-0.161448	0.100285	0.192543	-0.171940	NaN	NaN	NaN	NaN	NaN	NaN	-0.226046	1.635320	-0.308195	-0.195555	1.651300	-0.273334	-0.217830	1.620697	-0.265397	NaN	NaN	NaN	0.082038	1.677311	-0.342013	0.076041	1.649200	-0.269442	0.037731	1.653491	-0.239017	0.063859	1.626630	-0.229734	-0.227962	0.641151	-0.344742	0.140855	0.647615	-0.314982	-0.046252	1.218677	-0.118214	
295	1.4750	-0.077687	1.663591	-0.266868	-0.058317	1.568707	-0.390783	-0.049012	1.372099	-0.398337	-0.079613	1.488683	-0.174061	-0.057863	1.340631	-0.154665	-0.131539	1.276710	-0.366309	0.044719	1.317909	-0.363665	-0.151340	1.139926	-0.284106	0.102306	1.229292	-0.158179	-0.084957	1.184305	-0.112257	-0.010404	1.195224	-0.108507	0.065654	1.143858	-0.282743	-0.236093	0.897251	-0.330434	-0.265043	0.888409	-0.235918	-0.274775	0.799803	-0.247273	-0.254729	0.805018	-0.309570	-0.268182	0.638126	-0.274887	-0.174002	0.614380	-0.300395	-0.285624	0.593033	-0.230012	-0.307860	0.444115	-0.279780	-0.335324	0.445919	-0.205791	-0.329745	0.358658	-0.221723	-0.307482	0.358163	-0.283880	-0.308503	0.204302	-0.204995	-0.236815	0.203003	-0.252260	-0.341601	0.083490	-0.315818	-0.269262	0.091132	-0.351700	-0.320295	0.114814	-0.320114	-0.257808	0.164178	-0.165211	-0.258934	0.181839	-0.168829	0.169513	0.860034	-0.272908	0.186773	0.858978	-0.197655	0.182263	0.769834	-0.214341	0.169582	0.767897	-0.277139	0.165912	0.647825	-0.232881	0.063839	0.618991	-0.273931	0.166834	0.602848	-0.185542	0.196180	0.458079	-0.239689	0.210388	0.461383	-0.162671	0.202312	0.369669	-0.187523	0.192574	0.372364	-0.240821	0.180363	0.199894	-0.199681	0.107219	0.213387	-0.261060	0.208701	0.076206	-0.287184	0.152782	0.085733	-0.351744	0.194577	0.112022	-0.284148	0.097370	0.182187	-0.165438	0.102708	0.203742	-0.175656	NaN	NaN	NaN	NaN	NaN	NaN	-0.225336	1.650151	-0.306165	-0.194769	1.666143	-0.271376	-0.217207	1.635698	-0.263302	NaN	NaN	NaN	0.083427	1.691292	-0.338838	0.075951	1.663739	-0.266765	0.037211	1.668206	-0.236922	0.063454	1.641782	-0.226825	-0.224307	0.651769	-0.337873	0.137287	0.658873	-0.306854	-0.046083	1.231457	-0.121918	
296	1.4800	-0.077223	1.677907	-0.265040	-0.057534	1.583334	-0.389265	-0.047995	1.387761	-0.398747	-0.079567	1.502269	-0.173409	-0.057818	1.354048	-0.156437	-0.130911	1.292591	-0.369387	0.046733	1.334382	-0.364710	-0.150329	1.153994	-0.289074	0.102515	1.243411	-0.161573	-0.084900	1.197790	-0.116764	-0.010233	1.208577	-0.112579	0.066084	1.158211	-0.286418	-0.233426	0.906581	-0.331867	-0.264540	0.900894	-0.237718	-0.273910	0.811848	-0.246305	-0.252384	0.814946	-0.308238	-0.266458	0.649598	-0.269463	-0.170988	0.625185	-0.292994	-0.284126	0.604301	-0.224577	-0.307357	0.456406	-0.277497	-0.334637	0.456765	-0.203409	-0.329804	0.369783	-0.221325	-0.307698	0.370498	-0.283559	-0.309396	0.214594	-0.208247	-0.238044	0.213928	-0.255661	-0.342278	0.094235	-0.320264	-0.270429	0.102472	-0.356107	-0.321252	0.125874	-0.324280	-0.258681	0.173993	-0.169231	-0.259751	0.191566	-0.172572	0.167873	0.870359	-0.271179	0.186149	0.871478	-0.196122	0.180632	0.781834	-0.209966	0.167099	0.778089	-0.272551	0.162903	0.659918	-0.225334	0.059567	0.630623	-0.266007	0.163413	0.614804	-0.177875	0.195579	0.471408	-0.234813	0.208584	0.473162	-0.157415	0.202281	0.381804	-0.184593	0.193303	0.385575	-0.238001	0.182681	0.211427	-0.201538	0.110483	0.225742	-0.263786	0.209126	0.085873	-0.289694	0.155374	0.097362	-0.354776	0.196090	0.122510	-0.286284	0.099286	0.194170	-0.168552	0.104663	0.215285	-0.178534	NaN	NaN	NaN	NaN	NaN	NaN	-0.224493	1.664498	-0.304184	-0.193800	1.680530	-0.269524	-0.216441	1.650301	-0.261234	NaN	NaN	NaN	0.084978	1.704581	-0.335844	0.076029	1.677702	-0.264279	0.036820	1.682387	-0.235102	0.063166	1.656449	-0.224086	-0.220559	0.662515	-0.332047	0.133439	0.670232	-0.300266	-0.045979	1.244278	-0.125441	
